# xmcd
# 
# Track frame offsets:
#     150
#     25671
#     67584
#     121394
#     168276
#     203808
#     239072
#     275228
# 
# Disc length: 4219
# 
# Revision: 3
# Processed by: cddbd v1.5.2PL0 Copyright (c) Steve Scherf et al.
# Submitted via: fre:ac v1.0.17
# 
DISCID=6c107908
DTITLE=Cornelia Funke - Geisterritter CD 1
DYEAR=2011
DGENRE=Hörbuch
TTITLE0=01 Abgeschoben
TTITLE1=02 Als ich in Salisbury meinen Koffer aus dem Zug zerrte
TTITLE2=03 Drei tote Männer
TTITLE3=04 Hartgill
TTITLE4=05 Ella
TTITLE5=06 Diesmal starrte der ganze Speisesaal mich an
TTITLE6=07 Ein alter Mord
TTITLE7=08 Ella musterte die Karte mit gerunzelter Stirn
EXTD=
EXTT0=
EXTT1=
EXTT2=
EXTT3=
EXTT4=
EXTT5=
EXTT6=
EXTT7=
PLAYORDER=
